<mxfile host="app.diagrams.net" agent="Mozilla/5.0 (Windows NT 10.0; Win64; x64) AppleWebKit/537.36 (KHTML, like Gecko) Chrome/131.0.0.0 Safari/537.36" version="24.8.4">
  <diagram name="Page-1" id="96RNL5ME5LQ8UHPTefFS">
    <mxGraphModel dx="2074" dy="1106" grid="1" gridSize="10" guides="1" tooltips="1" connect="1" arrows="1" fold="1" page="1" pageScale="1" pageWidth="850" pageHeight="1100" math="0" shadow="0">
      <root>
        <mxCell id="0" />
        <mxCell id="1" parent="0" />
        <mxCell id="SEyP7BCxHGlnhs9-uiXv-1" value="" style="aspect=fixed;sketch=0;html=1;dashed=0;whitespace=wrap;verticalLabelPosition=bottom;verticalAlign=top;fillColor=#2875E2;strokeColor=#ffffff;points=[[0.005,0.63,0],[0.1,0.2,0],[0.9,0.2,0],[0.5,0,0],[0.995,0.63,0],[0.72,0.99,0],[0.5,1,0],[0.28,0.99,0]];shape=mxgraph.kubernetes.icon2;kubernetesLabel=1;prIcon=pod" vertex="1" parent="1">
          <mxGeometry x="600" y="90" width="154.17" height="148" as="geometry" />
        </mxCell>
        <mxCell id="SEyP7BCxHGlnhs9-uiXv-8" style="edgeStyle=orthogonalEdgeStyle;rounded=0;orthogonalLoop=1;jettySize=auto;html=1;" edge="1" parent="1" source="SEyP7BCxHGlnhs9-uiXv-2" target="SEyP7BCxHGlnhs9-uiXv-3">
          <mxGeometry relative="1" as="geometry">
            <Array as="points">
              <mxPoint x="210" y="297" />
            </Array>
          </mxGeometry>
        </mxCell>
        <mxCell id="SEyP7BCxHGlnhs9-uiXv-9" value="auto create a token" style="edgeLabel;html=1;align=center;verticalAlign=middle;resizable=0;points=[];" vertex="1" connectable="0" parent="SEyP7BCxHGlnhs9-uiXv-8">
          <mxGeometry x="0.4826" y="-1" relative="1" as="geometry">
            <mxPoint as="offset" />
          </mxGeometry>
        </mxCell>
        <mxCell id="SEyP7BCxHGlnhs9-uiXv-2" value="default SA" style="sketch=0;outlineConnect=0;fontColor=#232F3E;gradientColor=none;fillColor=#E7157B;strokeColor=none;dashed=0;verticalLabelPosition=bottom;verticalAlign=top;align=center;html=1;fontSize=12;fontStyle=0;aspect=fixed;pointerEvents=1;shape=mxgraph.aws4.organizations_management_account;" vertex="1" parent="1">
          <mxGeometry x="150" y="145" width="74" height="78" as="geometry" />
        </mxCell>
        <mxCell id="SEyP7BCxHGlnhs9-uiXv-3" value="" style="sketch=0;outlineConnect=0;fontColor=#232F3E;gradientColor=none;fillColor=#232F3D;strokeColor=none;dashed=0;verticalLabelPosition=bottom;verticalAlign=top;align=center;html=1;fontSize=12;fontStyle=0;aspect=fixed;pointerEvents=1;shape=mxgraph.aws4.saml_token;" vertex="1" parent="1">
          <mxGeometry x="380" y="258" width="78" height="78" as="geometry" />
        </mxCell>
        <mxCell id="SEyP7BCxHGlnhs9-uiXv-4" style="edgeStyle=orthogonalEdgeStyle;rounded=0;orthogonalLoop=1;jettySize=auto;html=1;entryX=0.5;entryY=1;entryDx=0;entryDy=0;entryPerimeter=0;" edge="1" parent="1" source="SEyP7BCxHGlnhs9-uiXv-3" target="SEyP7BCxHGlnhs9-uiXv-1">
          <mxGeometry relative="1" as="geometry" />
        </mxCell>
        <mxCell id="SEyP7BCxHGlnhs9-uiXv-5" value="auto mount" style="edgeLabel;html=1;align=center;verticalAlign=middle;resizable=0;points=[];" vertex="1" connectable="0" parent="SEyP7BCxHGlnhs9-uiXv-4">
          <mxGeometry x="-0.0431" y="-1" relative="1" as="geometry">
            <mxPoint as="offset" />
          </mxGeometry>
        </mxCell>
        <mxCell id="SEyP7BCxHGlnhs9-uiXv-6" style="edgeStyle=orthogonalEdgeStyle;rounded=0;orthogonalLoop=1;jettySize=auto;html=1;exitX=0.005;exitY=0.63;exitDx=0;exitDy=0;exitPerimeter=0;" edge="1" parent="1" source="SEyP7BCxHGlnhs9-uiXv-1" target="SEyP7BCxHGlnhs9-uiXv-2">
          <mxGeometry relative="1" as="geometry">
            <mxPoint x="340" y="100" as="sourcePoint" />
          </mxGeometry>
        </mxCell>
        <mxCell id="SEyP7BCxHGlnhs9-uiXv-7" value="auto use &quot;default&quot; SA" style="edgeLabel;html=1;align=center;verticalAlign=middle;resizable=0;points=[];" vertex="1" connectable="0" parent="SEyP7BCxHGlnhs9-uiXv-6">
          <mxGeometry x="-0.4634" relative="1" as="geometry">
            <mxPoint x="-100" y="1" as="offset" />
          </mxGeometry>
        </mxCell>
        <mxCell id="SEyP7BCxHGlnhs9-uiXv-10" value="" style="aspect=fixed;sketch=0;html=1;dashed=0;whitespace=wrap;verticalLabelPosition=bottom;verticalAlign=top;fillColor=#2875E2;strokeColor=#ffffff;points=[[0.005,0.63,0],[0.1,0.2,0],[0.9,0.2,0],[0.5,0,0],[0.995,0.63,0],[0.72,0.99,0],[0.5,1,0],[0.28,0.99,0]];shape=mxgraph.kubernetes.icon2;kubernetesLabel=1;prIcon=pod" vertex="1" parent="1">
          <mxGeometry x="600" y="410" width="154.17" height="148" as="geometry" />
        </mxCell>
        <mxCell id="SEyP7BCxHGlnhs9-uiXv-11" style="edgeStyle=orthogonalEdgeStyle;rounded=0;orthogonalLoop=1;jettySize=auto;html=1;" edge="1" parent="1" source="SEyP7BCxHGlnhs9-uiXv-13" target="SEyP7BCxHGlnhs9-uiXv-14">
          <mxGeometry relative="1" as="geometry">
            <Array as="points">
              <mxPoint x="210" y="617" />
            </Array>
          </mxGeometry>
        </mxCell>
        <mxCell id="SEyP7BCxHGlnhs9-uiXv-12" value="auto create a token" style="edgeLabel;html=1;align=center;verticalAlign=middle;resizable=0;points=[];" vertex="1" connectable="0" parent="SEyP7BCxHGlnhs9-uiXv-11">
          <mxGeometry x="0.4826" y="-1" relative="1" as="geometry">
            <mxPoint as="offset" />
          </mxGeometry>
        </mxCell>
        <mxCell id="SEyP7BCxHGlnhs9-uiXv-13" value="dashboard_sa" style="sketch=0;outlineConnect=0;fontColor=#232F3E;gradientColor=none;fillColor=#E7157B;strokeColor=none;dashed=0;verticalLabelPosition=bottom;verticalAlign=top;align=center;html=1;fontSize=12;fontStyle=0;aspect=fixed;pointerEvents=1;shape=mxgraph.aws4.organizations_management_account;" vertex="1" parent="1">
          <mxGeometry x="150" y="465" width="74" height="78" as="geometry" />
        </mxCell>
        <mxCell id="SEyP7BCxHGlnhs9-uiXv-14" value="" style="sketch=0;outlineConnect=0;fontColor=#232F3E;gradientColor=none;fillColor=#232F3D;strokeColor=none;dashed=0;verticalLabelPosition=bottom;verticalAlign=top;align=center;html=1;fontSize=12;fontStyle=0;aspect=fixed;pointerEvents=1;shape=mxgraph.aws4.saml_token;" vertex="1" parent="1">
          <mxGeometry x="380" y="578" width="78" height="78" as="geometry" />
        </mxCell>
        <mxCell id="SEyP7BCxHGlnhs9-uiXv-15" style="edgeStyle=orthogonalEdgeStyle;rounded=0;orthogonalLoop=1;jettySize=auto;html=1;entryX=0.5;entryY=1;entryDx=0;entryDy=0;entryPerimeter=0;dashed=1;" edge="1" parent="1" source="SEyP7BCxHGlnhs9-uiXv-14" target="SEyP7BCxHGlnhs9-uiXv-10">
          <mxGeometry relative="1" as="geometry" />
        </mxCell>
        <mxCell id="SEyP7BCxHGlnhs9-uiXv-16" value="automountServiceAccountToken: false" style="edgeLabel;html=1;align=center;verticalAlign=middle;resizable=0;points=[];fontColor=#CC0000;" vertex="1" connectable="0" parent="SEyP7BCxHGlnhs9-uiXv-15">
          <mxGeometry x="-0.0431" y="-1" relative="1" as="geometry">
            <mxPoint x="-21" y="-1" as="offset" />
          </mxGeometry>
        </mxCell>
        <mxCell id="SEyP7BCxHGlnhs9-uiXv-17" style="edgeStyle=orthogonalEdgeStyle;rounded=0;orthogonalLoop=1;jettySize=auto;html=1;exitX=0.005;exitY=0.63;exitDx=0;exitDy=0;exitPerimeter=0;" edge="1" parent="1" source="SEyP7BCxHGlnhs9-uiXv-10" target="SEyP7BCxHGlnhs9-uiXv-13">
          <mxGeometry relative="1" as="geometry">
            <mxPoint x="350" y="410" as="sourcePoint" />
          </mxGeometry>
        </mxCell>
        <mxCell id="SEyP7BCxHGlnhs9-uiXv-18" value="serviceAccountName: dashboard_sa" style="edgeLabel;html=1;align=center;verticalAlign=middle;resizable=0;points=[];fontColor=#CC0000;" vertex="1" connectable="0" parent="SEyP7BCxHGlnhs9-uiXv-17">
          <mxGeometry x="-0.4634" relative="1" as="geometry">
            <mxPoint x="-75" y="1" as="offset" />
          </mxGeometry>
        </mxCell>
      </root>
    </mxGraphModel>
  </diagram>
</mxfile>
